<?xml version="1.0" standalone="no"?>
<!DOCTYPE svg PUBLIC "-//W3C//DTD SVG 20010904//EN"
 "http://www.w3.org/TR/2001/REC-SVG-20010904/DTD/svg10.dtd">
<svg version="1.0" xmlns="http://www.w3.org/2000/svg"
 width="374.000000pt" height="374.000000pt" viewBox="0 0 374.000000 374.000000"
 preserveAspectRatio="xMidYMid meet">
<metadata>
Created by potrace 1.11, written by Peter Selinger 2001-2013
</metadata>
<g transform="translate(0.000000,374.000000) scale(0.100000,-0.100000)"
fill="#000000" stroke="none">
<path d="M1935 3723 c-56 -13 -117 -39 -242 -102 -206 -103 -203 -103 -453
-106 -242 -3 -286 -11 -362 -69 -54 -42 -97 -105 -169 -246 -103 -205 -125
-231 -314 -365 -72 -51 -149 -113 -173 -139 -88 -95 -113 -209 -86 -378 26
-159 29 -184 29 -263 0 -99 -15 -184 -38 -212 -5 -7 -7 -13 -4 -13 4 0 -5 -30
-19 -67 -14 -38 -28 -76 -30 -85 -2 -10 -6 -26 -8 -35 -21 -89 -25 -116 -20
-159 11 -97 53 -164 191 -307 193 -200 191 -197 268 -452 64 -211 119 -282
255 -333 31 -11 71 -23 90 -26 61 -10 174 -28 200 -30 30 -4 104 -23 145 -38
45 -16 119 -64 230 -147 141 -106 222 -145 305 -144 55 0 97 5 120 13 3 2 8 2
11 2 4 -1 64 28 135 64 151 77 229 111 275 120 19 4 124 8 234 9 149 2 213 6
252 18 54 16 126 60 153 94 29 35 96 149 134 228 46 96 105 185 149 226 18 16
82 64 142 106 124 87 223 180 248 235 33 70 41 188 22 298 -35 203 -42 310
-24 370 4 14 30 95 58 181 97 299 80 368 -145 594 -162 163 -185 199 -239 381
-62 206 -97 278 -160 329 -75 62 -140 82 -378 120 -60 9 -136 27 -169 39 -54
20 -194 111 -262 170 -107 91 -255 142 -351 119z m180 -268 c22 -4 67 -13 100
-21 33 -8 67 -16 76 -18 175 -42 403 -155 572 -283 61 -46 188 -169 258 -249
44 -51 135 -187 183 -274 63 -116 143 -348 161 -465 3 -16 9 -57 14 -90 16
-97 6 -426 -15 -505 -4 -14 -8 -32 -9 -40 -1 -8 -10 -43 -19 -78 -77 -290
-255 -583 -470 -777 -68 -61 -221 -174 -266 -197 -14 -7 -32 -17 -40 -24 -27
-20 -217 -102 -297 -128 -86 -27 -203 -52 -291 -64 -106 -13 -381 -7 -477 11
-91 18 -214 50 -250 67 -11 5 -41 16 -68 24 -66 22 -225 105 -310 162 -104 70
-234 188 -337 304 -49 56 -173 248 -213 331 -64 135 -123 321 -142 449 -4 25
-9 59 -12 75 -11 66 -9 286 4 385 52 405 241 758 552 1030 34 30 70 59 79 64
10 5 19 12 22 16 16 19 169 110 255 151 156 74 254 104 485 148 51 9 394 7
455 -4z"/>
<path d="M1738 3385 c-2 -2 -28 -7 -58 -10 -211 -24 -402 -93 -629 -226 -28
-16 -23 -12 -112 -79 -139 -103 -286 -267 -382 -426 -76 -126 -166 -349 -181
-450 -4 -22 -8 -46 -11 -54 -16 -55 -28 -176 -28 -285 1 -413 163 -804 454
-1094 92 -92 209 -183 294 -231 90 -51 133 -73 190 -97 67 -28 231 -79 285
-88 19 -3 42 -8 50 -10 82 -22 333 -27 464 -9 95 14 243 50 316 78 19 7 51 19
70 26 87 33 296 154 338 197 7 7 18 13 23 13 6 0 65 55 132 123 124 124 221
254 285 382 64 130 131 323 147 428 3 17 8 48 11 67 15 88 11 346 -7 445 -26
145 -27 151 -60 250 -77 231 -196 423 -368 596 -249 249 -523 387 -881 445
-41 7 -336 14 -342 9z m362 -39 c14 -3 41 -9 60 -12 273 -49 561 -201 774
-408 245 -239 415 -604 442 -946 9 -121 4 -297 -11 -367 -26 -122 -38 -171
-59 -236 -185 -568 -709 -980 -1311 -1032 -155 -14 -287 -5 -450 31 -222 49
-484 178 -640 313 -202 176 -372 422 -455 656 -28 80 -67 245 -76 325 -17 147
-8 357 21 484 8 33 16 72 19 86 9 50 69 207 111 290 184 363 493 628 884 756
57 19 115 36 130 39 35 7 138 24 176 29 40 6 354 -1 385 -8z"/>
<path d="M1606 3145 c-6 -18 29 -41 39 -25 10 16 -2 40 -19 40 -7 0 -16 -7
-20 -15z"/>
<path d="M2198 3109 c-24 -14 -23 -46 3 -59 37 -20 67 28 37 58 -14 14 -18 14
-40 1z"/>
<path d="M1923 3004 c-9 -23 13 -40 32 -24 12 10 13 16 4 26 -15 18 -28 18
-36 -2z"/>
<path d="M2570 2975 c-14 -16 -5 -35 16 -35 8 0 14 2 14 4 0 2 3 11 6 19 7 20
-22 29 -36 12z"/>
<path d="M1274 2932 c-19 -12 -25 -47 -10 -67 26 -36 80 -25 88 19 8 41 -43
72 -78 48z"/>
<path d="M2296 2867 c-29 -21 -18 -79 18 -96 25 -12 31 -11 55 7 28 21 33 61
10 88 -14 18 -59 18 -83 1z"/>
<path d="M1714 2775 c-17 -12 -18 -15 -3 -30 17 -17 49 -11 49 10 0 24 -25 36
-46 20z"/>
<path d="M928 2759 c-25 -14 -23 -56 3 -69 25 -14 44 -8 59 19 8 17 7 24 -10
41 -23 23 -28 24 -52 9z"/>
<path d="M2622 2758 c-18 -18 -14 -45 10 -62 37 -26 79 14 58 55 -12 21 -50
25 -68 7z"/>
<path d="M2307 2604 c-9 -9 4 -34 18 -34 14 0 27 25 18 34 -4 3 -12 6 -18 6
-6 0 -14 -3 -18 -6z"/>
<path d="M2891 2510 c-11 -6 -12 -14 -5 -30 8 -19 11 -19 29 -6 18 13 18 16 5
30 -10 10 -20 12 -29 6z"/>
<path d="M1157 2487 c-8 -21 8 -39 29 -35 27 5 25 42 -2 46 -12 2 -24 -3 -27
-11z"/>
<path d="M1560 2475 c-18 -22 -1 -50 31 -50 20 0 24 5 24 30 0 23 -5 31 -21
33 -11 2 -27 -4 -34 -13z"/>
<path d="M1962 2468 c-30 -30 13 -82 46 -56 23 20 7 68 -23 68 -6 0 -16 -5
-23 -12z"/>
<path d="M798 2453 c-22 -5 -35 -50 -21 -72 11 -18 52 -25 71 -13 24 16 24 59
0 76 -12 9 -25 15 -28 15 -3 -1 -13 -3 -22 -6z"/>
<path d="M2534 2449 c-3 -6 0 -17 7 -25 18 -17 44 -2 36 20 -7 18 -33 21 -43
5z"/>
<path d="M595 2140 c-92 -20 -100 -45 -100 -305 0 -194 1 -212 20 -237 55 -73
175 -74 225 -1 19 28 24 48 25 102 l0 66 -42 3 -43 3 0 -58 c0 -33 -5 -64 -12
-71 -20 -20 -68 -15 -76 8 -4 12 -8 104 -7 206 0 153 3 186 15 194 43 28 80
-3 80 -66 l0 -44 44 0 45 0 -3 53 c-6 92 -32 129 -101 145 -22 4 -53 5 -70 2z"/>
<path d="M906 2139 c-15 -4 -37 -16 -48 -26 -43 -38 -49 -74 -47 -271 2 -203
11 -248 55 -277 37 -24 115 -27 155 -6 62 32 69 61 69 285 0 185 -1 201 -22
237 -28 51 -97 75 -162 58z m78 -95 c13 -13 16 -46 16 -203 0 -139 -3 -191
-12 -198 -25 -19 -46 -22 -65 -8 -16 12 -18 31 -19 202 0 119 3 194 10 206 13
21 49 22 70 1z"/>
<path d="M2024 2140 l-29 -5 0 -290 0 -290 125 0 125 1 0 39 0 40 -65 1 c-36
1 -72 2 -80 3 -12 1 -15 15 -14 74 1 39 2 78 3 85 1 8 20 12 61 12 l60 0 0 43
0 43 -62 -1 -63 0 0 80 0 80 55 2 c30 1 66 2 81 2 22 1 25 5 24 36 -1 19 -4
38 -8 41 -7 7 -175 11 -213 4z"/>
<path d="M2508 2142 c-17 -3 -18 -23 -18 -242 0 -257 -1 -262 -55 -262 -25 0
-27 -3 -27 -38 0 -51 0 -51 45 -47 60 6 94 25 113 65 14 29 16 70 16 261 0
124 -1 233 -1 242 -1 17 -39 28 -73 21z"/>
<path d="M2997 2138 c-8 -5 -13 -339 -8 -564 1 -18 7 -21 44 -20 l42 1 5 119
c5 114 6 119 28 122 44 7 62 -27 63 -121 1 -47 3 -89 4 -95 1 -5 3 -13 4 -18
0 -4 20 -7 44 -7 l42 0 0 85 c0 109 -10 161 -37 183 l-21 18 22 23 c25 26 31
50 33 121 3 120 -35 156 -169 158 -47 1 -90 -1 -96 -5z m161 -90 c16 -16 16
-130 0 -150 -15 -18 -51 -28 -67 -19 -9 6 -18 132 -12 174 2 12 66 8 79 -5z"/>
<path d="M1206 2121 c-50 -30 -57 -64 -58 -280 -1 -214 5 -243 56 -277 35 -22
113 -26 149 -7 70 36 76 59 74 300 -3 218 -8 237 -69 269 -36 19 -118 16 -152
-5z m119 -87 c14 -29 13 -380 -1 -394 -18 -18 -48 -19 -66 -2 -16 13 -18 36
-18 199 0 112 4 192 11 204 14 26 60 22 74 -7z"/>
<path d="M1489 2126 c0 -6 -2 -138 -2 -293 l-2 -283 48 0 47 0 0 93 c1 57 6
101 14 116 13 23 15 18 57 -90 l45 -114 47 -3 c26 -2 47 -1 47 1 0 2 -27 70
-61 153 -33 82 -61 156 -61 164 -1 8 22 62 51 120 79 157 78 148 24 146 l-46
-1 -56 -122 c-31 -67 -57 -120 -59 -118 -2 2 -4 50 -4 107 0 135 0 135 -48
135 -22 0 -40 -5 -41 -11z"/>
<path d="M1837 1853 c0 -159 1 -290 2 -293 1 -3 21 -7 45 -7 l44 -1 -1 294 -1
294 -46 0 -45 0 2 -287z"/>
<path d="M2719 2138 c-1 -4 -7 -39 -13 -78 -3 -19 -8 -46 -10 -60 -3 -14 -10
-59 -16 -100 -7 -41 -14 -84 -16 -95 -2 -11 -7 -40 -10 -65 -3 -25 -7 -54 -9
-65 -2 -11 -6 -44 -10 -72 l-8 -53 41 0 40 0 9 53 8 52 58 3 c41 2 57 -1 58
-10 0 -7 2 -22 5 -33 2 -11 5 -30 6 -42 2 -20 8 -23 51 -23 41 0 48 3 43 18
-2 9 -12 64 -21 122 -8 58 -18 121 -22 140 -3 19 -7 42 -8 50 -1 8 -5 31 -8
50 -3 19 -9 53 -12 75 -22 146 -15 135 -91 135 -35 0 -64 -1 -65 -2z m72 -155
c0 -16 2 -37 5 -48 2 -11 6 -40 10 -65 3 -25 9 -64 14 -87 8 -46 10 -44 -47
-46 -25 -1 -28 3 -27 29 1 33 12 127 19 164 3 14 6 37 7 53 1 15 6 27 10 27 4
0 8 -12 9 -27z"/>
<path d="M2126 1245 c-13 -36 24 -61 52 -33 7 7 8 17 1 30 -12 22 -45 24 -53
3z"/>
<path d="M1026 1144 c-42 -41 5 -107 58 -83 33 16 42 44 22 74 -19 29 -57 33
-80 9z"/>
<path d="M2904 1142 c-20 -13 -23 -41 -7 -57 19 -19 42 -16 57 8 19 30 -20 70
-50 49z"/>
<path d="M2452 1108 c-7 -7 -12 -24 -12 -40 0 -50 66 -62 91 -17 23 43 -44 92
-79 57z"/>
<path d="M1784 1049 c-36 -40 20 -89 59 -51 19 19 19 22 4 45 -18 28 -41 30
-63 6z"/>
<path d="M1512 808 c-27 -27 -6 -68 35 -68 31 0 44 47 18 67 -23 16 -37 17
-53 1z"/>
<path d="M2306 634 c-20 -19 -20 -24 -1 -52 19 -26 53 -24 72 4 11 17 10 24
-3 42 -18 26 -46 28 -68 6z"/>
<path d="M1807 595 c-30 -30 6 -75 47 -59 30 12 14 74 -20 74 -7 0 -19 -7 -27
-15z"/>
</g>
</svg>
